<?xml version="1.0" standalone="no"?>
<!DOCTYPE svg PUBLIC "-//W3C//DTD SVG 20010904//EN"
 "http://www.w3.org/TR/2001/REC-SVG-20010904/DTD/svg10.dtd">
<svg version="1.0" xmlns="http://www.w3.org/2000/svg"
 width="512.000000pt" height="512.000000pt" viewBox="0 0 512.000000 512.000000"
 preserveAspectRatio="xMidYMid meet">
<metadata>
Created by potrace 1.11, written by Peter Selinger 2001-2013
</metadata>
<g transform="translate(0.000000,512.000000) scale(0.100000,-0.100000)"
fill="#000000" stroke="none">
<path d="M2475 3526 c-112 -28 -188 -91 -239 -196 -28 -58 -31 -75 -31 -155 0
-79 4 -97 29 -148 32 -65 99 -142 115 -132 7 4 11 64 11 166 0 198 10 226 99
289 63 44 182 28 238 -32 45 -47 53 -87 53 -253 0 -136 2 -156 17 -162 22 -8
74 51 111 126 31 65 43 189 22 244 -27 73 -55 118 -98 161 -51 51 -103 78
-180 95 -64 13 -82 13 -147 -3z"/>
<path d="M2524 3293 c-12 -2 -34 -18 -50 -34 l-29 -30 -3 -441 c-2 -269 -6
-446 -12 -453 -7 -8 -23 -10 -48 -5 -20 4 -83 17 -139 29 -56 11 -110 18 -120
14 -24 -8 -93 -74 -93 -88 0 -6 94 -104 208 -218 l209 -207 312 0 c277 0 315
2 338 17 37 25 49 60 72 223 12 80 26 179 33 221 13 86 8 117 -25 153 -12 14
-105 67 -207 118 -136 69 -198 94 -235 98 l-50 5 -5 255 c-5 269 -10 294 -54
324 -25 16 -73 25 -102 19z"/>
<path d="M3430 2495 l0 -655 845 0 845 0 0 655 0 655 -845 0 -845 0 0 -655z"/>
<path d="M1278 3 c705 -2 1859 -2 2565 0 705 1 128 2 -1283 2 -1411 0 -1988
-1 -1282 -2z"/>
</g>
</svg>
